<?xml version="1.0" encoding="utf-8"?>
<!-- Generator: Adobe Illustrator 18.1.1, SVG Export Plug-In . SVG Version: 6.00 Build 0)  -->
<svg version="1.1" id="Layer_1" xmlns="http://www.w3.org/2000/svg" xmlns:xlink="http://www.w3.org/1999/xlink" x="0px" y="0px"
	 viewBox="0 0 1024 1024" enable-background="new 0 0 1024 1024" xml:space="preserve">
<g>
	<path fill="#FFFFFF" d="M266.7,195.3l-36-30.4l5.1-3.6l17.8,15.6c4.4,3.8,8.7,7.8,11.9,10.9l0.1-0.1c-2-4.1-4-9.4-6.2-15.1
		l-8.4-22.3l5-3.6l18,15.6c4.2,3.7,8.3,7.4,11.7,10.9l0.1-0.1c-2.1-4.6-4-9.5-6.2-15l-8.5-22.2l4.9-3.5l16,44.7l-5,3.6l-18.5-16
		c-4.5-3.9-7.9-7-11.1-10.4l-0.1,0.1c2,4.2,3.7,8.4,5.8,14.2l8.5,23.1L266.7,195.3z"/>
	<path fill="#FFFFFF" d="M303,153.8l2.9,14.9l-5.3,3l-8.7-47.4l6.2-3.5l35.9,32.3l-5.5,3.1l-11.3-10.2L303,153.8z M313.8,142.4
		l-10.3-9.3c-2.3-2.1-4.3-4.1-6.1-6.1l-0.1,0.1c0.7,2.7,1.4,5.5,2,8.3l2.5,13.7L313.8,142.4z"/>
	<path fill="#FFFFFF" d="M335.5,144.5c3.1,0.4,7.2,0.1,10.9-1.6c5.5-2.4,7.4-6.8,5.6-11c-1.7-3.9-5-5.1-11.6-4.8
		c-7.9,0.6-13.7-1-16.3-6.9c-2.9-6.5,0.3-13.7,8.5-17.3c4.3-1.9,7.8-2.3,10.1-2.1l0.5,5.1c-1.7-0.1-5-0.1-8.8,1.5
		c-5.7,2.5-6.3,6.9-5.1,9.7c1.7,3.9,5.1,4.7,11.9,4.4c8.3-0.4,13.4,1.4,16.1,7.5c2.9,6.4,0.6,14.1-9.3,18.5c-4,1.8-8.9,2.6-11.8,2.1
		L335.5,144.5z"/>
	<path fill="#FFFFFF" d="M384.2,109.8l-16.8,5.9l5.4,15.5l18.7-6.5l1.6,4.7l-24.2,8.5l-15.1-43.1l23.3-8.1l1.6,4.7l-17.7,6.2
		l4.8,13.6l16.8-5.9L384.2,109.8z"/>
	<path fill="#FFFFFF" d="M388.7,83.6c3.4-1.4,7.4-2.8,11.9-3.9c8.2-2,14.5-1.5,19.3,1.1c4.8,2.7,8.4,7.2,10.2,14.4
		c1.8,7.2,1,13.7-2.2,18.8c-3.1,5.2-9.4,9.1-18,11.2c-4.1,1-7.5,1.6-10.5,2L388.7,83.6z M404.1,121.4c1.5-0.1,3.6-0.5,5.9-1.1
		c12.2-3,17.2-11.5,14.3-23.5c-2.5-10.5-10.1-15.7-22.2-12.7c-3,0.7-5.1,1.5-6.6,2.2L404.1,121.4z"/>
	<path fill="#FFFFFF" d="M446.7,102.4l-2.7,14.9l-6,0.8l9.1-47.4l7-1l21.7,43.1l-6.2,0.9l-6.8-13.6L446.7,102.4z M460.9,95.8
		l-6.2-12.4c-1.4-2.8-2.5-5.4-3.5-7.9l-0.1,0c-0.3,2.8-0.7,5.6-1.1,8.5l-2.6,13.7L460.9,95.8z"/>
	<path fill="#FFFFFF" d="M500.3,66.2l0.4,27c0.2,10.2,4.8,14.5,10.9,14.4c6.8-0.1,11-4.7,10.9-14.7l-0.4-27l6-0.1l0.4,26.6
		c0.2,14-7.1,19.9-17,20.1c-9.3,0.2-16.5-5.1-16.7-19.2l-0.4-26.9L500.3,66.2z"/>
	<path fill="#FFFFFF" d="M537.9,112.2l4.8-45.4l6.4,0.7L561.2,92c2.8,5.7,4.9,10.7,6.6,15.6l0.1-0.1c0.1-6.1,0.6-11.7,1.3-18.7l2-19
		l5.5,0.6l-4.8,45.4l-5.9-0.6l-12-24.6c-2.6-5.4-5.1-10.9-6.9-16.1l-0.2,0c-0.3,5.8-0.7,11.2-1.5,18.8l-2.1,19.4L537.9,112.2z"/>
	<path fill="#FFFFFF" d="M595.3,73.8l-8.2,44.9l-5.8-1.1l8.2-44.9L595.3,73.8z"/>
	<path fill="#FFFFFF" d="M606.2,122.8l-3.3-47.9l6.2,1.6l1.4,23.5c0.4,6.5,0.7,12.3,0.6,17.7l0.1,0c2.5-4.8,5.8-9.9,9.2-15.2l13-20
		l6.1,1.5l-27,40.3L606.2,122.8z"/>
	<path fill="#FFFFFF" d="M661.4,117.4l-16.8-5.8l-5.4,15.6l18.7,6.5l-1.6,4.7l-24.3-8.4L647,86.7l23.3,8.1l-1.6,4.7L651,93.3
		l-4.7,13.6l16.8,5.8L661.4,117.4z"/>
	<path fill="#FFFFFF" d="M680.9,99.6c3,0.7,7,2.1,10.7,3.7c5.8,2.6,9,5.3,10.6,8.8c1.3,2.8,1.2,6.2-0.2,9.4
		c-2.5,5.5-7.5,7.6-12.6,7.1l-0.1,0.2c2.7,2.5,3.3,6.4,2.4,11.1c-1.2,6.4-2,10.9-1.9,12.9l-5.6-2.5c-0.2-1.5,0.5-5.5,1.7-11.2
		c1.3-6.3,0.1-9.5-4.7-11.8l-5.1-2.3l-8,18.1l-5.4-2.4L680.9,99.6z M677.8,121l5.5,2.5c5.8,2.6,10.8,1,12.9-3.7
		c2.4-5.4-0.5-9.5-6.1-12.1c-2.6-1.2-4.6-1.7-5.5-1.9L677.8,121z"/>
	<path fill="#FFFFFF" d="M697.5,148.9c1.5,2.7,4.3,5.8,7.8,7.7c5.3,2.9,9.9,1.8,12.1-2.2c2.1-3.7,1.1-7.1-3.2-12.1
		c-5.2-5.9-7.4-11.5-4.3-17.2c3.4-6.2,11.1-8,18.9-3.7c4.1,2.3,6.5,4.8,7.8,6.8l-3.7,3.4c-0.9-1.4-2.9-4.1-6.5-6.1
		c-5.5-3-9.3-0.9-10.8,1.8c-2.1,3.7-0.6,6.9,3.7,12.1c5.3,6.3,7,11.5,3.7,17.4c-3.4,6.2-10.9,9-20.3,3.8c-3.9-2.1-7.4-5.6-8.8-8.2
		L697.5,148.9z"/>
	<path fill="#FFFFFF" d="M752.5,136.4L728.1,175l-5-3.2l24.4-38.6L752.5,136.4z"/>
	<path fill="#FFFFFF" d="M767.1,152.3l-11.3-8.1l2.9-4.1l27.4,19.8l-2.9,4.1l-11.3-8.2l-23.8,33l-4.8-3.5L767.1,152.3z"/>
	<path fill="#FFFFFF" d="M771.7,207.4l12.7-14.6l6.3-29.3l5.1,4.4l-3.4,13.7c-0.9,3.8-1.7,6.8-2.7,10.1l0.1,0.1
		c2.9-1.4,6.1-2.6,9.7-4.1l13.2-5.2l5.1,4.4l-28.7,9.8l-12.7,14.7L771.7,207.4z"/>
	<path fill="#FFFFFF" d="M841.8,242.3c-2.9,2.5-7.3,2.1-9.8-0.8c-2.5-2.9-2.1-7.3,0.8-9.8s7.3-2.1,9.8,0.8
		C845.2,235.6,844.6,239.9,841.8,242.3z"/>
	<path fill="#FFFFFF" d="M864.9,319.3c-2-1.3-5.2-4.4-8.1-9.2c-6.7-11-4.7-23.5,8.1-31.3c12.2-7.4,25.5-4.1,32.9,8
		c2.9,4.9,3.8,8.6,3.9,10.3l-4.9,1.3c-0.2-2.5-1.2-5.6-3.1-8.9c-5.5-9.2-15.1-11.7-25.3-5.5c-9.6,5.8-12.4,15-6.6,24.5
		c1.9,3.1,4.4,5.8,6.6,7.3L864.9,319.3z"/>
	<path fill="#FFFFFF" d="M903.7,349.6c-14.2,6.7-25.8,1.7-30.8-8.9c-5.2-10.9-0.3-22.6,12.2-28.5c13.1-6.2,25.5-2.1,30.8,8.9
		C921.2,332.4,916,343.8,903.7,349.6z M887.9,317.9c-8.8,4.2-14.5,12.7-10.5,21.1c4,8.5,14,9.5,23.4,5.1
		c8.2-3.9,14.7-12.2,10.5-21.1C907.2,314.2,896.9,313.6,887.9,317.9z"/>
	<path fill="#FFFFFF" d="M916.2,395.7c5.9-2.3,13.1-5.1,18.5-6.8l-0.1-0.2c-5.6,0.2-11.6,0.2-18.3,0l-23.6-0.7l-1.4-4.2l18.3-13.8
		c5.4-4.1,10.5-7.7,15.2-10.6l0-0.1c-5.4,1.7-12.8,3.7-19.5,5.5l-19,5l-1.8-5.3l44.4-11.3l2.4,7.1l-18.5,14.3
		c-4.7,3.6-9,6.6-13.2,9.2l0.1,0.2c4.7-0.3,10-0.4,16.1-0.2l23.5,0.8l2.4,7.1l-42.5,17l-1.8-5.5L916.2,395.7z"/>
	<path fill="#FFFFFF" d="M944.9,406.9c1,2.7,2.2,6.2,3.2,10.9c1.2,5.7,0.8,10.2-1.1,13.3c-1.6,2.9-4.5,5-8.5,5.9
		c-4,0.9-7.5,0.3-10.3-1.4c-3.9-2.4-6.6-7-7.8-12.6c-0.4-1.7-0.6-3.3-0.6-4.7L902,422l-1.2-5.8L944.9,406.9z M924.6,417.2
		c-0.1,1.3,0.1,2.9,0.5,4.9c1.5,7,5.7,10.5,11.9,9.2c5.9-1.2,7.9-6,6.5-12.4c-0.5-2.5-1.1-4.4-1.6-5.3L924.6,417.2z"/>
	<path fill="#FFFFFF" d="M953.7,451.3l-26.9,3c-10.2,1.1-14,6.1-13.3,12.2c0.7,6.7,5.7,10.6,15.7,9.4l26.9-3l0.7,5.9l-26.5,2.9
		c-13.9,1.5-20.5-5.2-21.6-15c-1-9.3,3.5-16.9,17.6-18.4l26.7-3L953.7,451.3z"/>
	<path fill="#FFFFFF" d="M952.5,501.1l-0.2-13.9l5-0.1l0.6,33.8l-5,0.1l-0.2-14l-40.6,0.7l-0.1-6L952.5,501.1z"/>
	<path fill="#FFFFFF" d="M931.8,550.8l1.1-17.7l-16.4-1l-1.2,19.7l-4.9-0.3l1.6-25.6l45.6,2.9l-1.6,24.6L951,553l1.2-18.7l-14.4-0.9
		l-1.1,17.7L931.8,550.8z"/>
	<path fill="#FFFFFF" d="M954.1,564.8c0.2,3-0.1,7.3-0.7,11.3c-0.9,6.2-2.7,10.1-5.6,12.5c-2.3,2-5.6,2.8-9.1,2.3
		c-6-0.9-9.4-5.2-10.3-10.2l-0.2,0c-1.7,3.3-5.2,4.9-10.1,5.3c-6.5,0.5-11,1-12.9,1.6l0.9-6c1.4-0.5,5.4-1,11.2-1.4
		c6.4-0.4,9.1-2.5,10.1-7.7l0.8-5.5l-19.6-2.9l0.9-5.8L954.1,564.8z M932.7,567.5l-0.9,6c-0.9,6.2,1.9,10.7,7.1,11.5
		c5.8,0.9,9-3,10-9.1c0.4-2.8,0.4-4.9,0.3-5.8L932.7,567.5z"/>
	<path fill="#FFFFFF" d="M907.9,607.9c-2.3,2.1-4.6,5.5-5.7,9.4c-1.6,5.8,0.5,10.1,5,11.3c4.1,1.1,7.1-0.6,11-5.9
		c4.5-6.5,9.5-9.9,15.7-8.2c6.9,1.9,10.4,9,8,17.5c-1.2,4.5-3.2,7.5-4.8,9.1l-4.2-2.8c1.2-1.2,3.3-3.8,4.4-7.8
		c1.7-6-1.3-9.3-4.3-10.1c-4.1-1.1-6.9,1-10.9,6.4c-4.9,6.7-9.6,9.5-16,7.7c-6.8-1.9-11.3-8.5-8.4-18.9c1.2-4.2,3.7-8.5,5.9-10.5
		L907.9,607.9z"/>
	<path fill="#FFFFFF" d="M882.2,668.4c-0.3-2.4,0.2-6.9,2.2-12.1c4.5-12.1,15.5-18.3,29.5-13.1c13.4,5,19.1,17.5,14.1,30.7
		c-2,5.3-4.4,8.3-5.7,9.4l-4-3c1.8-1.7,3.7-4.4,5-8c3.7-10-0.2-19.1-11.4-23.3c-10.5-3.9-19.5-0.4-23.3,10c-1.3,3.4-1.8,7.1-1.6,9.7
		L882.2,668.4z"/>
	<path fill="#FFFFFF" d="M917,698l-41.6-18.8l2.4-5.4l41.6,18.8L917,698z"/>
	<path fill="#FFFFFF" d="M879.3,718.8l8.3-15.7l-14.6-7.7l-9.2,17.5l-4.4-2.3l12-22.7l40.4,21.3L900.3,731l-4.4-2.3l8.8-16.6
		l-12.8-6.7l-8.3,15.7L879.3,718.8z"/>
	<path fill="#FFFFFF" d="M856.2,716.4l38.2,25l-3.5,5.4l-27.3-0.4c-6.3-0.1-11.8-0.5-16.9-1.3l0,0.2c5.4,2.9,10.1,5.8,16.1,9.7
		l16,10.5l-3,4.6l-38.2-25l3.3-5l27.3,0.6c6,0.1,12,0.4,17.4,1.2l0.1-0.2c-5-2.9-9.7-5.8-16-9.9L853.1,721L856.2,716.4z"/>
	<path fill="#FFFFFF" d="M812.9,778.1c0.5-2.4,2.4-6.4,5.9-10.7c8.1-10,20.5-12.4,32.2-3c11.1,9,12.5,22.6,3.6,33.6
		c-3.6,4.4-6.8,6.4-8.4,7.1l-2.8-4.1c2.3-1.1,4.9-3,7.3-6c6.7-8.3,5.9-18.1-3.4-25.7c-8.7-7-18.3-6.6-25.3,2.1
		c-2.3,2.8-4,6.1-4.6,8.7L812.9,778.1z"/>
	<path fill="#FFFFFF" d="M806.3,813.6l12.3-12.7l-11.8-11.5L793,803.6l-3.6-3.4l17.9-18.4l32.8,31.8L823,831.2l-3.6-3.4l13.1-13.5
		l-10.4-10L809.8,817L806.3,813.6z"/>
	<path fill="#FFFFFF" d="M766.2,839l-4.8-14.3l4.9-3.6l14.9,45.9l-5.7,4.3l-39.8-27.3l5-3.8l12.5,8.6L766.2,839z M757,851.7
		l11.4,7.9c2.6,1.8,4.8,3.5,6.9,5.3l0.1-0.1c-1.1-2.6-2.1-5.2-3.1-8l-4.3-13.3L757,851.7z"/>
	<path fill="#FFFFFF" d="M731,846.9l23.4,39.2l-5.5,3.3L724.5,877c-5.6-2.9-10.4-5.6-14.6-8.6l-0.1,0.1c3.6,5,6.5,9.7,10.2,15.8
		l9.8,16.4l-4.8,2.8l-23.4-39.2l5.1-3l24.3,12.5c5.3,2.7,10.6,5.7,15.1,8.7l0.1-0.2c-3.2-4.8-6.2-9.4-10-15.9l-10-16.8L731,846.9z"
		/>
	<path fill="#FFFFFF" d="M712.2,909.6c-3,2-6.8,4.1-11,6.1c-7.7,3.5-14,4.2-19.2,2.5c-5.2-1.7-9.6-5.5-12.7-12.2
		c-3.1-6.8-3.5-13.3-1.4-18.9c2.1-5.7,7.6-10.7,15.6-14.4c3.8-1.7,7.1-3,10-3.9L712.2,909.6z M690.1,875.3c-1.5,0.4-3.5,1.2-5.6,2.2
		c-11.5,5.2-14.8,14.5-9.7,25.7c4.4,9.8,12.8,13.5,24.1,8.4c2.8-1.3,4.8-2.5,6-3.4L690.1,875.3z"/>
	<path fill="#FFFFFF" d="M623.7,918.3l17-5.2l-4.8-15.7l-18.9,5.8l-1.4-4.7l24.6-7.5l13.3,43.7l-23.6,7.2l-1.4-4.7l17.9-5.5
		l-4.2-13.8l-17,5.2L623.7,918.3z"/>
	<path fill="#FFFFFF" d="M609.1,900.2l9.1,44.7l-6.3,1.3l-19-19.7c-4.4-4.6-7.9-8.8-11-12.9l-0.1,0.1c1.7,5.9,3,11.3,4.4,18.3
		l3.8,18.7l-5.4,1.1l-9.1-44.7l5.8-1.2l18.8,19.8c4.1,4.3,8.2,8.8,11.4,13.2l0.2-0.1c-1.5-5.6-2.7-10.9-4.2-18.4l-3.9-19.1
		L609.1,900.2z"/>
	<path fill="#FFFFFF" d="M532.1,913.6c2.5-1.2,7.6-3.2,13.7-3.8c6.9-0.6,12.7,0.6,17.6,4.4c4.3,3.4,7.3,9.3,7.9,16.3
		c1.2,13.6-7.2,24.4-22.4,25.8c-5.3,0.5-9.5-0.3-11.5-1l1-4.9c2.5,0.9,5.6,1.4,10.2,1c11.1-1,17.6-8.6,16.6-20
		c-1.1-11.5-8.7-17.7-19.3-16.7c-3.8,0.4-6.4,1.1-7.7,1.9l1.3,13.6l9.2-0.9l0.4,4.7l-15,1.4L532.1,913.6z"/>
	<path fill="#FFFFFF" d="M518.8,957.3l-1-45.7l5.9-0.1l1,45.7L518.8,957.3z"/>
	<path fill="#FFFFFF" d="M508.3,912l-2.3,45.6l-6.4-0.3l-13.4-23.8c-3.1-5.5-5.5-10.5-7.4-15.2l-0.1,0.1c0.2,6.1,0.1,11.7-0.3,18.8
		l-1,19.1l-5.5-0.3l2.3-45.6l6,0.3l13.3,23.9c2.9,5.2,5.7,10.6,7.7,15.7l0.2-0.1c0-5.8,0.1-11.3,0.5-18.8l1-19.5L508.3,912z"/>
	<path fill="#FFFFFF" d="M438.4,926.9l17.6,2.6l2.4-16.3l-19.6-2.9l0.7-4.9l25.4,3.7l-6.6,45.2l-24.4-3.6l0.7-4.9l18.6,2.7l2.1-14.3
		l-17.6-2.6L438.4,926.9z"/>
	<path fill="#FFFFFF" d="M405.1,919.6l17.3,4l3.7-16l-19.3-4.4l1.1-4.8l25,5.8l-10.3,44.5l-24-5.5l1.1-4.8l18.3,4.2l3.2-14.1
		l-17.3-4L405.1,919.6z"/>
	<path fill="#FFFFFF" d="M387.6,939.3c-3-0.3-7.2-1.3-11.1-2.6c-6-1.9-9.5-4.3-11.4-7.6c-1.6-2.6-1.8-6-0.8-9.4
		c1.9-5.7,6.7-8.4,11.8-8.4l0.1-0.2c-3-2.2-4-6-3.6-10.8c0.5-6.5,0.9-11,0.5-13l5.8,1.9c0.3,1.5,0.1,5.5-0.4,11.3
		c-0.6,6.4,0.9,9.4,6,11.3l5.3,1.7l6.1-18.8l5.6,1.8L387.6,939.3z M388.4,917.7l-5.7-1.9c-6-1.9-10.9,0.1-12.5,5.1
		c-1.8,5.6,1.5,9.4,7.4,11.3c2.7,0.9,4.7,1.2,5.7,1.3L388.4,917.7z"/>
	<path fill="#FFFFFF" d="M345.4,925.2l16.8-42.5l5.5,2.2l-16.8,42.5L345.4,925.2z"/>
	<path fill="#FFFFFF" d="M353.3,879.4l-19.9,41.1l-5.8-2.8l-3.1-27.2c-0.7-6.3-1-11.8-0.9-16.9l-0.2,0c-2.2,5.7-4.5,10.8-7.6,17.2
		l-8.3,17.2l-5-2.4l19.9-41.1l5.4,2.6l3,27.2c0.7,6,1.1,12,1,17.4l0.2,0c2.2-5.3,4.5-10.3,7.8-17.2l8.5-17.6L353.3,879.4z"/>
	<path fill="#FFFFFF" d="M284,843.3c2.7,0.6,8,2,13.2,5.3c5.9,3.7,9.8,8.2,11.3,14.2c1.3,5.3,0.2,11.8-3.6,17.8
		c-7.3,11.5-20.5,15-33.5,6.9c-4.5-2.8-7.4-6-8.5-7.8l3.8-3.3c1.5,2.2,3.6,4.6,7.5,7c9.4,5.9,19.2,3.9,25.3-5.8
		c6.1-9.8,3.8-19.3-5.2-25c-3.3-2-5.8-3-7.3-3.1l-7.2,11.5l7.9,4.9l-2.5,4l-12.8-8L284,843.3z"/>
	<path fill="#FFFFFF" d="M225.5,826.7c2.6-2.9,7-3.2,9.8-0.6c2.9,2.6,3.2,7,0.6,9.8c-2.6,2.9-7,3.2-9.8,0.6
		C223.1,833.9,223,829.5,225.5,826.7z"/>
	<path fill="#FFFFFF" d="M178,799.2l9,10.6l-3.8,3.2l-21.9-25.8l3.8-3.2l9,10.6l31-26.3l3.9,4.5L178,799.2z"/>
	<path fill="#FFFFFF" d="M152.8,775.8l15.7-10.9l-12.7-18.1l-15.7,10.9l-3.4-4.9l37.4-26.2l3.4,4.9l-17.5,12.3l12.7,18.1l17.5-12.3
		l3.4,4.8l-37.4,26.2L152.8,775.8z"/>
	<path fill="#FFFFFF" d="M139.2,708.8l8.8,15.4l14.3-8.1l-9.8-17.2l4.3-2.4l12.7,22.3l-39.7,22.5l-12.2-21.5l4.3-2.4l9.3,16.3
		l12.6-7.1l-8.8-15.4L139.2,708.8z"/>
	<path fill="#FFFFFF" d="M106.2,695.2c-1.7-2.5-3.7-6.3-5.2-10.1c-2.4-5.8-2.9-10-1.7-13.6c1-2.9,3.4-5.3,6.6-6.7
		c5.6-2.3,10.7-0.4,14.1,3.4l0.2-0.1c-0.2-3.7,2-6.9,5.9-9.7c5.3-3.8,8.9-6.5,10.2-8.1l2.4,5.6c-0.9,1.2-4.1,3.6-8.9,7
		c-5.3,3.7-6.5,6.8-4.7,11.9l2.1,5.1l18.3-7.6l2.3,5.4L106.2,695.2z M123.2,681.8l-2.3-5.6c-2.4-5.8-7.2-8.2-12-6.2
		c-5.4,2.3-6.2,7.2-3.8,13c1.1,2.6,2.1,4.4,2.7,5.2L123.2,681.8z"/>
	<path fill="#FFFFFF" d="M106.9,629l5.4,16.9l15.7-5l-6-18.8l4.7-1.5l7.8,24.5l-43.5,13.9l-7.5-23.5l4.7-1.5l5.7,17.9l13.7-4.4
		l-5.4-16.9L106.9,629z"/>
	<path fill="#FFFFFF" d="M109.3,610l15,1.5l1.3,6l-47.9-5.2l-1.5-6.9l41.2-25.1l1.4,6.1l-13,7.9L109.3,610z M101.5,596.4l-11.9,7.2
		c-2.7,1.6-5.2,2.9-7.6,4.1l0,0.1c2.8,0.1,5.7,0.2,8.6,0.5l13.9,1.5L101.5,596.4z"/>
	<path fill="#FFFFFF" d="M71.5,580.4l-0.8-5.8l40.4-5.2l-2.5-19.3l4.9-0.6l3.3,25.2L71.5,580.4z"/>
	<path fill="#FFFFFF" d="M105.1,530.6c1.6-2.7,2.9-6.6,2.8-10.6c-0.1-6-3.3-9.5-7.9-9.4c-4.3,0.1-6.7,2.5-8.9,8.7
		c-2.5,7.5-6.3,12.2-12.7,12.3c-7.1,0.1-12.5-5.7-12.6-14.6c-0.1-4.7,1-8.1,2.1-10.1l4.8,1.5c-0.8,1.5-2.1,4.6-2,8.7
		c0.1,6.2,3.9,8.5,7,8.5c4.3-0.1,6.3-2.9,8.7-9.2c2.9-7.8,6.5-11.8,13.2-11.9c7-0.1,13.2,5,13.4,15.8c0.1,4.4-1.1,9.2-2.7,11.7
		L105.1,530.6z"/>
	<path fill="#FFFFFF" d="M98.2,488.9l14,5.8l-0.5,6.1l-44.4-18.8l0.5-7.1l46.7-12.2l-0.5,6.3l-14.7,3.8L98.2,488.9z M94.7,473.6
		l-13.4,3.5c-3,0.8-5.8,1.3-8.5,1.7l0,0.1c2.7,0.9,5.4,1.8,8.1,2.9l12.8,5.4L94.7,473.6z"/>
	<path fill="#FFFFFF" d="M70.5,449.4l1-5.8l21.7,3.7l0-0.2c-1.5-1.5-2.9-3-4.2-4.4l-14.6-16.6l1.2-7.2L92,438.4l28.9-13.1l-1.2,6.9
		l-24.6,11.1l4.2,5.1l17.2,2.9l-1,5.8L70.5,449.4z"/>
	<path fill="#FFFFFF" d="M110,410.5l12.6,8.4l-1.6,5.9l-40-27l1.9-6.9l48.2-3l-1.7,6.1l-15.1,0.9L110,410.5z M109.5,394.8l-13.9,0.9
		c-3.1,0.2-5.9,0.1-8.7,0.1l0,0.1c2.4,1.4,4.9,2.8,7.4,4.4l11.6,7.8L109.5,394.8z"/>
	<path fill="#FFFFFF" d="M92.2,361.7l43.1,15.1l-1.9,5.6l-43.1-15.1L92.2,361.7z"/>
	<path fill="#FFFFFF" d="M102.3,335.7l2.5-5.4l37,17l8.1-17.7l4.5,2.1l-10.6,23.1L102.3,335.7z"/>
	<path fill="#FFFFFF" d="M148.1,313.2l10.1,11.3l-3,5.3l-31.9-36.2l3.5-6.2l47.4,9.2l-3.1,5.5l-14.9-2.9L148.1,313.2z M151.6,297.9
		l-13.6-2.7c-3.1-0.6-5.8-1.4-8.4-2.1l-0.1,0.1c2,1.9,4.1,4,6,6.1l9.2,10.4L151.6,297.9z"/>
	<path fill="#FFFFFF" d="M140.7,265.9c1-2.4,3.1-6,5.4-9.3c3.4-4.8,6.4-7.3,9.9-8.3c2.8-0.9,5.8-0.5,8.8,1.6
		c3.6,2.5,5.1,7.1,3.7,12.1l0.1,0.1c3.4-2.9,9.3-5,14.8-1.1c3.2,2.3,4.7,5.3,5.2,8.4c0.5,4.3-1.3,9.3-5.6,15.4
		c-2.3,3.3-4.4,5.7-5.7,7.2L140.7,265.9z M159.3,271.9l3.1-4.4c3.6-5.1,3.1-10-0.5-12.5c-4.4-3.1-8.4-1-11.9,3.9
		c-1.6,2.2-2.3,3.6-2.7,4.5L159.3,271.9z M177.2,284.5c0.8-0.8,1.9-2.2,3.1-3.9c3.5-5,4.9-10.9-0.5-14.7c-5.1-3.6-10.3-0.7-14,4.5
		l-2.8,4L177.2,284.5z"/>
	<path fill="#FFFFFF" d="M211.2,210.4c2.8,2.7,2.8,7.1,0.2,9.9s-7.1,2.8-9.9,0.2c-2.8-2.7-2.8-7.1-0.2-9.9
		C204.1,207.6,208.5,207.8,211.2,210.4z"/>
</g>
</svg>
